<?xml version="1.0" encoding="UTF-8" standalone="no"?><svg height="35" viewBox="0 0 54.76875 9.260417" width="207" xmlns="http://www.w3.org/2000/svg"><g stroke-width=".264583"><path d="m28.601458 3.5692291.801687 2.9606875h.756709l.817562-2.9633333v2.9633333h.754063v-3.8973125h-1.145646l-.791104 3.0083125h-.01058l-.796399-3.0083125h-1.132417v3.8973125h.746125z"/><path d="m36.877625 5.7017708h1.404937l.264583.8281458h.822855l-1.375834-3.8840833h-.817562l-1.357313 3.8973125h.79375zm.709083-2.3283333.513292 1.7224374h-1.02923z"/><path d="m46.630166 2.6326041h-.759354v2.7199167h-.01058l-1.568983-2.7199167h-.801687v3.8973125h.756708v-2.6934583h.01323l1.606021 2.6934583h.764646z"/><path d="m11.157479 2.6326041h-.788458v1.5266458h-1.5319378v-1.5266458h-.7911041v3.8973125h.7911041v-1.7171458h1.5319378v1.7171458h.788458z"/><path d="m23.680208 2.6326041h-3.135312v.6641042h1.172104v3.2332083h.791104v-3.2332083h1.172104z"/><path d="m15.5575 2.6326041h.791104v3.8973125h-.791104z"/></g><path d="m0 0v9.2604169h54.768751v-9.2604169zm.79375002.79375002h53.18125098v7.67291688h-53.18125098z" fill="#010000"/></svg>